<mxfile host="app.diagrams.net" agent="Mozilla/5.0 (Windows NT 10.0; Win64; x64) AppleWebKit/537.36 (KHTML, like Gecko) Chrome/136.0.0.0 Safari/537.36" version="27.0.8">
  <diagram name="Страница — 1" id="jww5Rb25DPd32z0LLuDL">
    <mxGraphModel dx="1665" dy="751" grid="1" gridSize="10" guides="1" tooltips="1" connect="1" arrows="1" fold="1" page="1" pageScale="1" pageWidth="827" pageHeight="1169" math="0" shadow="0">
      <root>
        <mxCell id="0" />
        <mxCell id="1" parent="0" />
        <mxCell id="oxcVI8U4AfdfZ03FWXus-4" style="edgeStyle=orthogonalEdgeStyle;rounded=0;orthogonalLoop=1;jettySize=auto;html=1;entryX=0.5;entryY=0;entryDx=0;entryDy=0;" edge="1" parent="1" source="oxcVI8U4AfdfZ03FWXus-2" target="oxcVI8U4AfdfZ03FWXus-3">
          <mxGeometry relative="1" as="geometry" />
        </mxCell>
        <mxCell id="oxcVI8U4AfdfZ03FWXus-2" value="Пользователь" style="shape=umlActor;verticalLabelPosition=bottom;verticalAlign=top;html=1;outlineConnect=0;" vertex="1" parent="1">
          <mxGeometry x="399" y="130" width="30" height="60" as="geometry" />
        </mxCell>
        <mxCell id="oxcVI8U4AfdfZ03FWXus-6" style="edgeStyle=orthogonalEdgeStyle;rounded=0;orthogonalLoop=1;jettySize=auto;html=1;entryX=0.5;entryY=0;entryDx=0;entryDy=0;" edge="1" parent="1" source="oxcVI8U4AfdfZ03FWXus-3" target="oxcVI8U4AfdfZ03FWXus-5">
          <mxGeometry relative="1" as="geometry" />
        </mxCell>
        <mxCell id="oxcVI8U4AfdfZ03FWXus-3" value="Веб-интерфейс" style="rounded=0;whiteSpace=wrap;html=1;" vertex="1" parent="1">
          <mxGeometry x="354" y="260" width="120" height="60" as="geometry" />
        </mxCell>
        <mxCell id="oxcVI8U4AfdfZ03FWXus-9" style="edgeStyle=orthogonalEdgeStyle;rounded=0;orthogonalLoop=1;jettySize=auto;html=1;exitX=0.5;exitY=1;exitDx=0;exitDy=0;entryX=0.5;entryY=0;entryDx=0;entryDy=0;" edge="1" parent="1" source="oxcVI8U4AfdfZ03FWXus-5" target="oxcVI8U4AfdfZ03FWXus-8">
          <mxGeometry relative="1" as="geometry" />
        </mxCell>
        <mxCell id="oxcVI8U4AfdfZ03FWXus-5" value="&#xa;Сервер&#xa;&#xa;" style="rounded=0;whiteSpace=wrap;html=1;" vertex="1" parent="1">
          <mxGeometry x="354" y="390" width="120" height="60" as="geometry" />
        </mxCell>
        <mxCell id="oxcVI8U4AfdfZ03FWXus-7" value="HTTPS запрос" style="text;html=1;align=center;verticalAlign=middle;resizable=0;points=[];autosize=1;strokeColor=none;fillColor=none;" vertex="1" parent="1">
          <mxGeometry x="420" y="348" width="100" height="30" as="geometry" />
        </mxCell>
        <mxCell id="oxcVI8U4AfdfZ03FWXus-8" value="База данных" style="rounded=0;whiteSpace=wrap;html=1;" vertex="1" parent="1">
          <mxGeometry x="354" y="510" width="120" height="60" as="geometry" />
        </mxCell>
        <mxCell id="oxcVI8U4AfdfZ03FWXus-10" value="SQL запрос" style="text;html=1;align=center;verticalAlign=middle;whiteSpace=wrap;rounded=0;" vertex="1" parent="1">
          <mxGeometry x="440" y="470" width="60" height="30" as="geometry" />
        </mxCell>
      </root>
    </mxGraphModel>
  </diagram>
</mxfile>
